<svg viewBox="0 0 400 400" fill="none" xmlns="http://www.w3.org/2000/svg">
  <!-- Streak Flame -->
  <path d="M200 100C200 100 260 180 260 250C260 283.137 233.137 310 200 310C166.863 310 140 283.137 140 250C140 180 200 100 200 100Z" fill="#F59E0B" />
  <path d="M200 160C200 160 230 210 230 250C230 266.569 216.569 280 200 280C183.431 280 170 266.569 170 250C170 210 200 160 200 160Z" fill="#FBBF24" />

  <!-- Floating XP Stars -->
  <path d="M100 150L105 165L120 170L105 175L100 190L95 175L80 170L95 165L100 150Z" fill="#8B5CF6" />
  <path d="M300 200L308 222L330 230L308 238L300 260L292 238L270 230L292 222L300 200Z" fill="#8B5CF6" />
</svg>
